<svg width="48" height="48" viewBox="0 0 48 48" fill="none" xmlns="http://www.w3.org/2000/svg">
<path fill-rule="evenodd" clip-rule="evenodd" d="M14 6C13.4696 6 12.9609 6.21071 12.5858 6.58579C12.2107 6.96086 12 7.46957 12 8V15.1C10.8708 15.3309 9.85599 15.9446 9.12714 16.8375C8.3983 17.7303 8.00014 18.8474 8 20V37C8 38.3261 8.52678 39.5979 9.46447 40.5355C10.4021 41.4732 11.6739 42 13 42H25C25.9731 42.0001 26.9251 41.7164 27.7393 41.1835C28.5536 40.6507 29.1946 39.8918 29.584 39H27.236C26.686 39.614 25.888 40 25 40H13C12.2044 40 11.4413 39.6839 10.8787 39.1213C10.3161 38.5587 10 37.7956 10 37V36H20C20.2652 36 20.5196 35.8946 20.7071 35.7071C20.8946 35.5196 21 35.2652 21 35C21 34.7348 20.8946 34.4804 20.7071 34.2929C20.5196 34.1054 20.2652 34 20 34H10V25H18C18.2652 25 18.5196 24.8946 18.7071 24.7071C18.8946 24.5196 19 24.2652 19 24C19 23.7348 18.8946 23.4804 18.7071 23.2929C18.5196 23.1054 18.2652 23 18 23H10V20C10 19.2044 10.3161 18.4413 10.8787 17.8787C11.4413 17.3161 12.2044 17 13 17H25C25.4222 16.9994 25.8397 17.0882 26.2251 17.2605C26.6105 17.4329 26.955 17.6849 27.236 18H29.584C29.2625 17.265 28.7691 16.6179 28.1454 16.1133C27.5217 15.6086 26.7859 15.2611 26 15.1V8C26 7.46957 25.7893 6.96086 25.4142 6.58579C25.0391 6.21071 24.5304 6 24 6H14ZM24 8H14V15H24V8Z" fill="#065F46"/>
<path fill-rule="evenodd" clip-rule="evenodd" d="M37.34 33.69C39.0706 31.4999 40.0082 28.7882 40 25.997V22.4C40.0008 21.7647 39.7506 21.1548 39.304 20.703C39.0848 20.4808 38.8237 20.3043 38.5359 20.1837C38.248 20.063 37.9391 20.0006 37.627 20H23.374C22.744 20 22.141 20.253 21.696 20.703C21.2497 21.155 20.9996 21.7648 21 22.4V25.998C20.9925 28.7882 21.9301 31.4988 23.66 33.688C25.3793 35.8658 27.7937 37.3878 30.5 38C33.206 37.3884 35.6204 35.8671 37.34 33.69ZM32 25C32 24.7348 31.8947 24.4804 31.7071 24.2929C31.5196 24.1054 31.2652 24 31 24C30.7348 24 30.4804 24.1054 30.2929 24.2929C30.1054 24.4804 30 24.7348 30 25V27H28C27.7348 27 27.4804 27.1054 27.2929 27.2929C27.1054 27.4804 27 27.7348 27 28C27 28.2652 27.1054 28.5196 27.2929 28.7071C27.4804 28.8946 27.7348 29 28 29H30V31C30 31.2652 30.1054 31.5196 30.2929 31.7071C30.4804 31.8946 30.7348 32 31 32C31.2652 32 31.5196 31.8946 31.7071 31.7071C31.8947 31.5196 32 31.2652 32 31V29H34C34.2652 29 34.5196 28.8946 34.7071 28.7071C34.8947 28.5196 35 28.2652 35 28C35 27.7348 34.8947 27.4804 34.7071 27.2929C34.5196 27.1054 34.2652 27 34 27H32V25Z" fill="#065F46"/>
</svg>
